<svg width="251" height="52" viewBox="0 0 251 52" fill="none" xmlns="http://www.w3.org/2000/svg">
<path d="M115.662 32.5485C115.782 32.5245 115.962 32.5125 116.202 32.5125C117.09 32.5125 117.534 33.0285 117.534 34.0605C117.534 34.6365 117.402 35.1285 117.138 35.5365C116.898 35.9205 116.514 36.1605 115.986 36.2565C112.986 36.8565 110.85 37.3125 109.578 37.6245C109.53 37.8165 109.482 38.1045 109.434 38.4885C108.762 42.9525 107.418 46.3005 105.402 48.5325C103.386 50.7645 100.89 51.8805 97.9141 51.8805C95.8981 51.8805 94.3501 51.3645 93.2701 50.3325C92.1901 49.3005 91.6501 47.9325 91.6501 46.2285C91.6501 43.8285 92.8021 41.6685 95.1061 39.7485C97.4341 37.8045 100.854 36.1605 105.366 34.8165C105.486 34.1445 105.726 32.5125 106.086 29.9205C106.182 29.3445 106.338 28.3005 106.554 26.7885C105.426 29.2605 104.01 31.1205 102.306 32.3685C100.602 33.5925 98.6821 34.2045 96.5461 34.2045C94.5061 34.2045 92.9701 33.5805 91.9381 32.3325C90.9061 31.0845 90.3901 29.4525 90.3901 27.4365C90.3901 26.7165 90.4621 26.0325 90.6061 25.3845C90.7501 24.7365 90.9541 23.9685 91.2181 23.0805C91.5301 22.0245 91.7581 21.1605 91.9021 20.4885C92.0461 19.8165 92.1181 19.0725 92.1181 18.2565C92.1181 17.1045 91.6861 16.5285 90.8221 16.5285C90.2701 16.5285 89.6461 16.7445 88.9501 17.1765C88.2781 17.5845 87.5701 18.1605 86.8261 18.9045C86.4181 19.3125 86.0221 19.5165 85.6381 19.5165C85.2781 19.5165 84.9781 19.3725 84.7381 19.0845C84.5221 18.7965 84.4141 18.4365 84.4141 18.0045C84.4141 17.1165 84.7621 16.2765 85.4581 15.4845C86.3461 14.5005 87.4141 13.7205 88.6621 13.1445C89.9101 12.5445 91.2061 12.2445 92.5501 12.2445C94.0141 12.2445 95.1541 12.6885 95.9701 13.5765C96.8101 14.4645 97.2301 15.7725 97.2301 17.5005C97.2301 18.4365 97.1461 19.3125 96.9781 20.1285C96.8101 20.9445 96.5701 21.8805 96.2581 22.9365C95.9941 23.9205 95.8021 24.6765 95.6821 25.2045C95.5861 25.7325 95.5381 26.2605 95.5381 26.7885C95.5381 27.8925 95.7301 28.6725 96.1141 29.1285C96.4981 29.5605 97.2181 29.7765 98.2741 29.7765C99.4981 29.7765 100.794 29.1525 102.162 27.9045C103.53 26.6325 104.742 24.8805 105.798 22.6485C106.854 20.4165 107.562 17.9205 107.922 15.1605C108.066 14.0805 108.342 13.3245 108.75 12.8925C109.182 12.4605 109.806 12.2445 110.622 12.2445C112.302 12.2445 113.142 13.0845 113.142 14.7645C113.142 15.0525 113.13 15.2805 113.106 15.4485C112.794 17.6805 112.398 20.1645 111.918 22.9005C111.342 26.3565 110.766 29.9085 110.19 33.5565C111.726 33.2445 113.55 32.9085 115.662 32.5485ZM104.754 38.9565C101.802 39.8685 99.6061 40.8765 98.1661 41.9805C96.7501 43.0845 96.0421 44.3445 96.0421 45.7605C96.0421 46.4325 96.2581 47.0085 96.6901 47.4885C97.1221 47.9685 97.7101 48.2085 98.4541 48.2085C99.9901 48.2085 101.298 47.4885 102.378 46.0485C103.482 44.6085 104.262 42.3525 104.718 39.2805L104.754 38.9565ZM150.194 34.7445C150.506 34.7445 150.746 34.8885 150.914 35.1765C151.106 35.4645 151.202 35.8605 151.202 36.3645C151.202 37.3005 150.974 38.0445 150.518 38.5965C149.366 39.9885 148.202 41.0685 147.026 41.8365C145.85 42.5805 144.458 42.9525 142.85 42.9525C141.074 42.9525 139.622 42.4365 138.494 41.4045C137.366 40.3485 136.31 38.7165 135.326 36.5085C134.606 34.9245 134.006 33.7485 133.526 32.9805C133.07 32.1885 132.614 31.6365 132.158 31.3245C131.702 30.9885 131.126 30.7845 130.43 30.7125L130.034 33.3765C129.53 36.8085 128.546 39.2805 127.082 40.7925C125.642 42.3045 123.65 43.0605 121.106 43.0605C119.45 43.0605 117.974 42.6645 116.678 41.8725C115.406 41.0565 114.518 40.0245 114.014 38.7765C113.846 38.3445 113.762 37.8765 113.762 37.3725C113.762 36.6525 113.93 36.0285 114.266 35.5005C114.602 34.9725 115.034 34.7085 115.562 34.7085C115.874 34.7085 116.138 34.7925 116.354 34.9605C116.57 35.1045 116.774 35.3685 116.966 35.7525C117.71 37.1445 118.358 38.1165 118.91 38.6685C119.486 39.2205 120.194 39.4965 121.034 39.4965C121.994 39.4965 122.81 39.0645 123.482 38.2005C124.178 37.3125 124.67 35.9565 124.958 34.1325L125.462 30.7125H124.886C124.334 30.7125 123.902 30.5565 123.59 30.2445C123.278 29.9325 123.122 29.5005 123.122 28.9485C123.122 28.3245 123.278 27.8325 123.59 27.4725C123.926 27.0885 124.334 26.8965 124.814 26.8965H126.002C126.17 25.7205 126.29 24.9045 126.362 24.4485L127.478 16.3485C126.854 16.2765 126.266 16.2405 125.714 16.2405C123.674 16.2405 122.126 16.6005 121.07 17.3205C120.014 18.0165 119.486 19.0245 119.486 20.3445C119.486 20.9445 119.546 21.4365 119.666 21.8205C119.81 22.1805 119.99 22.5885 120.206 23.0445C120.302 23.2365 120.35 23.4525 120.35 23.6925C120.35 24.2205 120.098 24.6885 119.594 25.0965C119.114 25.4805 118.574 25.6725 117.974 25.6725C117.206 25.6725 116.642 25.3365 116.282 24.6645C115.562 23.3925 115.202 22.0245 115.202 20.5605C115.202 19.0485 115.61 17.6685 116.426 16.4205C117.266 15.1725 118.526 14.1765 120.206 13.4325C121.886 12.6645 123.962 12.2805 126.434 12.2805C127.514 12.2805 128.498 12.3405 129.386 12.4605C130.298 12.5805 131.294 12.8085 132.374 13.1445C133.55 13.5045 134.138 14.1765 134.138 15.1605C134.138 16.4805 133.574 17.1405 132.446 17.1405L131.042 26.8245C133.85 26.5365 136.13 25.3365 137.882 23.2245C139.658 21.0885 141.134 18.1965 142.31 14.5485C142.526 13.8765 142.886 13.3605 143.39 13.0005C143.918 12.6405 144.578 12.4605 145.37 12.4605C146.042 12.4605 146.558 12.6165 146.918 12.9285C147.302 13.2165 147.494 13.6365 147.494 14.1885C147.494 14.3565 147.446 14.6325 147.35 15.0165C146.15 18.9765 144.434 22.1205 142.202 24.4485C139.97 26.7765 137.534 28.3245 134.894 29.0925C135.806 29.3085 136.55 29.6325 137.126 30.0645C137.726 30.4965 138.23 31.0365 138.638 31.6845C139.046 32.3085 139.514 33.1845 140.042 34.3125C140.786 35.8965 141.482 37.0245 142.13 37.6965C142.778 38.3445 143.534 38.6685 144.398 38.6685C145.166 38.6685 145.898 38.4165 146.594 37.9125C147.29 37.3845 148.166 36.4965 149.222 35.2485C149.51 34.9125 149.834 34.7445 150.194 34.7445ZM187.316 19.7325C187.316 21.7725 186.596 23.5365 185.156 25.0245C183.716 26.4885 181.616 27.5445 178.856 28.1925C180.344 28.6005 181.472 29.2725 182.24 30.2085C183.008 31.1205 183.392 32.1765 183.392 33.3765C183.392 35.2725 182.792 36.9165 181.592 38.3085C180.416 39.7005 178.688 40.7805 176.408 41.5485C174.128 42.2925 171.38 42.6645 168.164 42.6645C166.964 42.6645 166.004 42.6285 165.284 42.5565C165.26 43.2285 164.972 43.7325 164.42 44.0685C163.868 44.4045 163.16 44.5725 162.296 44.5725C161.432 44.5725 160.832 44.3805 160.496 43.9965C160.184 43.6125 160.052 43.0485 160.1 42.3045C160.316 38.9445 160.736 35.4285 161.36 31.7565C161.984 28.0605 162.776 24.4965 163.736 21.0645C163.904 20.4645 164.24 20.0445 164.744 19.8045C165.248 19.5645 165.908 19.4445 166.724 19.4445C168.188 19.4445 168.92 19.8525 168.92 20.6685C168.92 21.0045 168.848 21.3885 168.704 21.8205C168.08 23.6925 167.456 26.2365 166.832 29.4525C166.208 32.6445 165.764 35.6925 165.5 38.5965C166.652 38.6925 167.588 38.7405 168.308 38.7405C171.668 38.7405 174.128 38.2605 175.688 37.3005C177.272 36.3165 178.064 35.0685 178.064 33.5565C178.064 32.5005 177.608 31.6125 176.696 30.8925C175.808 30.1725 174.308 29.7765 172.196 29.7045C171.716 29.6805 171.38 29.5605 171.188 29.3445C170.996 29.1285 170.9 28.7805 170.9 28.3005C170.9 27.6045 171.044 27.0405 171.332 26.6085C171.62 26.1765 172.148 25.9485 172.916 25.9245C174.62 25.8765 176.156 25.6245 177.524 25.1685C178.916 24.7125 180.008 24.0765 180.8 23.2605C181.592 22.4205 181.988 21.4485 181.988 20.3445C181.988 18.9525 181.304 17.8605 179.936 17.0685C178.568 16.2525 176.468 15.8445 173.636 15.8445C171.068 15.8445 168.584 16.1805 166.184 16.8525C163.784 17.5005 161.744 18.3285 160.064 19.3365C159.296 19.7925 158.648 20.0205 158.12 20.0205C157.688 20.0205 157.352 19.8765 157.112 19.5885C156.896 19.2765 156.788 18.8925 156.788 18.4365C156.788 17.8365 156.908 17.3205 157.148 16.8885C157.412 16.4565 158.024 15.9645 158.984 15.4125C161 14.2605 163.364 13.3605 166.076 12.7125C168.788 12.0645 171.56 11.7405 174.392 11.7405C178.736 11.7405 181.976 12.4725 184.112 13.9365C186.248 15.4005 187.316 17.3325 187.316 19.7325ZM202.364 34.7445C202.676 34.7445 202.916 34.8885 203.084 35.1765C203.276 35.4645 203.372 35.8605 203.372 36.3645C203.372 37.3245 203.144 38.0685 202.688 38.5965C201.8 39.6765 200.54 40.6725 198.908 41.5845C197.3 42.4965 195.572 42.9525 193.724 42.9525C191.204 42.9525 189.248 42.2685 187.856 40.9005C186.464 39.5325 185.768 37.6605 185.768 35.2845C185.768 33.6285 186.116 32.0925 186.812 30.6765C187.508 29.2365 188.468 28.0965 189.692 27.2565C190.94 26.4165 192.344 25.9965 193.904 25.9965C195.296 25.9965 196.412 26.4165 197.252 27.2565C198.092 28.0725 198.512 29.1885 198.512 30.6045C198.512 32.2605 197.912 33.6885 196.712 34.8885C195.536 36.0645 193.532 37.0005 190.7 37.6965C191.3 38.8005 192.44 39.3525 194.12 39.3525C195.2 39.3525 196.424 38.9805 197.792 38.2365C199.184 37.4685 200.384 36.4725 201.392 35.2485C201.68 34.9125 202.004 34.7445 202.364 34.7445ZM193.292 29.5245C192.404 29.5245 191.648 30.0405 191.024 31.0725C190.424 32.1045 190.124 33.3525 190.124 34.8165V34.8885C191.54 34.5525 192.656 34.0485 193.472 33.3765C194.288 32.7045 194.696 31.9245 194.696 31.0365C194.696 30.5805 194.564 30.2205 194.3 29.9565C194.06 29.6685 193.724 29.5245 193.292 29.5245ZM207.317 42.9525C204.965 42.9525 203.129 42.2925 201.809 40.9725C200.513 39.6285 199.865 37.8645 199.865 35.6805C199.865 33.7365 200.249 32.0325 201.017 30.5685C201.785 29.1045 202.781 27.9765 204.005 27.1845C205.229 26.3925 206.513 25.9965 207.857 25.9965C209.177 25.9965 210.197 26.3925 210.917 27.1845C211.661 27.9525 212.033 28.9485 212.033 30.1725C212.033 31.1805 211.805 32.0325 211.349 32.7285C210.917 33.4245 210.341 33.7725 209.621 33.7725C209.165 33.7725 208.793 33.6645 208.505 33.4485C208.241 33.2325 208.109 32.9325 208.109 32.5485C208.109 32.3805 208.133 32.1885 208.181 31.9725C208.229 31.7565 208.265 31.6005 208.289 31.5045C208.409 31.1445 208.469 30.8085 208.469 30.4965C208.469 30.1845 208.385 29.9445 208.217 29.7765C208.073 29.6085 207.857 29.5245 207.569 29.5245C207.017 29.5245 206.501 29.7765 206.021 30.2805C205.541 30.7605 205.157 31.4205 204.869 32.2605C204.581 33.1005 204.437 34.0245 204.437 35.0325C204.437 37.8165 205.649 39.2085 208.073 39.2085C209.057 39.2085 210.113 38.8845 211.241 38.2365C212.393 37.5645 213.521 36.5685 214.625 35.2485C214.913 34.9125 215.237 34.7445 215.597 34.7445C215.909 34.7445 216.149 34.8885 216.317 35.1765C216.509 35.4645 216.605 35.8605 216.605 36.3645C216.605 37.2765 216.377 38.0205 215.921 38.5965C214.793 39.9885 213.437 41.0685 211.853 41.8365C210.293 42.5805 208.781 42.9525 207.317 42.9525ZM232.703 34.7445C233.015 34.7445 233.255 34.8885 233.423 35.1765C233.615 35.4645 233.711 35.8605 233.711 36.3645C233.711 37.3245 233.483 38.0685 233.027 38.5965C231.923 39.8685 230.783 40.9125 229.607 41.7285C228.455 42.5445 227.135 42.9525 225.647 42.9525C224.399 42.9525 223.523 42.5685 223.019 41.8005C222.515 41.0325 222.263 39.8805 222.263 38.3445C222.263 37.6965 222.323 36.9165 222.443 36.0045C220.331 36.0045 218.867 35.9805 218.051 35.9325C218.003 36.6045 217.979 37.0725 217.979 37.3365V38.0925C217.955 39.5805 217.919 40.6245 217.871 41.2245C217.823 41.8245 217.679 42.2685 217.439 42.5565C217.199 42.8205 216.803 42.9525 216.251 42.9525C215.339 42.9525 214.691 42.4725 214.307 41.5125C213.947 40.5525 213.767 39.0165 213.767 36.9045C213.767 33.7845 214.211 30.8205 215.099 28.0125C215.315 27.3165 215.663 26.8125 216.143 26.5005C216.623 26.1645 217.319 25.9965 218.231 25.9965C218.711 25.9965 219.047 26.0565 219.239 26.1765C219.431 26.2965 219.527 26.5245 219.527 26.8605C219.527 27.2445 219.347 28.1085 218.987 29.4525C218.795 30.2445 218.615 31.2045 218.447 32.3325H223.055C223.295 31.2045 223.643 29.7645 224.099 28.0125C224.291 27.2925 224.579 26.7765 224.963 26.4645C225.371 26.1525 225.971 25.9965 226.763 25.9965C227.315 25.9965 227.699 26.0685 227.915 26.2125C228.131 26.3325 228.239 26.5725 228.239 26.9325C228.239 27.5325 227.939 29.1765 227.339 31.8645C226.667 34.9365 226.331 36.8325 226.331 37.5525C226.331 38.0085 226.427 38.3685 226.619 38.6325C226.811 38.8725 227.063 38.9925 227.375 38.9925C227.855 38.9925 228.419 38.7045 229.067 38.1285C229.739 37.5285 230.627 36.5685 231.731 35.2485C232.019 34.9125 232.343 34.7445 232.703 34.7445ZM235.209 42.9525C233.721 42.9525 232.533 42.4125 231.645 41.3325C230.757 40.2525 230.313 38.8365 230.313 37.0845C230.313 35.1645 230.757 33.3525 231.645 31.6485C232.533 29.9205 233.709 28.5405 235.173 27.5085C236.661 26.4525 238.233 25.9245 239.889 25.9245C240.417 25.9245 240.765 26.0325 240.933 26.2485C241.125 26.4405 241.281 26.8005 241.401 27.3285C241.905 27.2325 242.433 27.1845 242.985 27.1845C244.161 27.1845 244.749 27.6045 244.749 28.4445C244.749 28.9485 244.569 30.1485 244.209 32.0445C243.657 34.8045 243.381 36.7245 243.381 37.8045C243.381 38.1645 243.465 38.4525 243.633 38.6685C243.825 38.8845 244.065 38.9925 244.353 38.9925C244.809 38.9925 245.361 38.7045 246.009 38.1285C246.657 37.5285 247.533 36.5685 248.637 35.2485C248.925 34.9125 249.249 34.7445 249.609 34.7445C249.921 34.7445 250.161 34.8885 250.329 35.1765C250.521 35.4645 250.617 35.8605 250.617 36.3645C250.617 37.3245 250.389 38.0685 249.933 38.5965C248.949 39.8205 247.905 40.8525 246.801 41.6925C245.697 42.5325 244.629 42.9525 243.597 42.9525C242.805 42.9525 242.073 42.6885 241.401 42.1605C240.753 41.6085 240.261 40.8645 239.925 39.9285C238.677 41.9445 237.105 42.9525 235.209 42.9525ZM236.505 39.3165C237.033 39.3165 237.537 39.0045 238.017 38.3805C238.497 37.7565 238.845 36.9285 239.061 35.8965L240.393 29.2725C239.385 29.2965 238.449 29.6805 237.585 30.4245C236.745 31.1445 236.073 32.1045 235.569 33.3045C235.065 34.5045 234.813 35.7765 234.813 37.1205C234.813 37.8645 234.957 38.4165 235.245 38.7765C235.557 39.1365 235.977 39.3165 236.505 39.3165Z" fill="#F67B00"/>
<line x1="64.8276" y1="49.5377" x2="64.8276" y2="1.53772" stroke="#F6B100" stroke-width="2" stroke-linecap="round"/>
<path d="M7.20813 47.3504C3.9823 46.7388 1.48589 44.435 0.653747 41.2851L0.427734 40.4186V27.0139V13.6091L0.664021 12.7936C1.49616 9.91901 3.53028 7.84968 6.38626 6.96282L7.31086 6.6774L20.4093 6.64682C29.4293 6.62643 33.7749 6.64682 34.3605 6.72837C37.2781 7.10554 39.8054 9.04234 40.9457 11.7641C41.5929 13.3135 41.5827 12.9873 41.5518 27.4828C41.5107 42.2943 41.5827 41.0405 40.6992 42.8651C39.8876 44.5267 38.5828 45.8315 36.898 46.6368C35.0591 47.5135 36.333 47.4421 21.2826 47.4727C10.4956 47.4829 7.79371 47.4625 7.20813 47.3504ZM22.7311 28.7468C34.5865 16.8915 37.2987 14.129 37.2781 13.9353C37.2576 13.813 37.1446 13.4868 37.0213 13.2218L36.8158 12.7223L21.6832 27.7376L6.54036 42.7632L6.82801 42.9059C7.11567 43.0588 7.84507 43.3035 8.04026 43.3137C8.1019 43.3239 14.7077 36.7591 22.7311 28.7468ZM25.3508 32.4064L37.309 21.4889L37.3398 19.287L37.3603 17.075L25.9364 28.492C19.6491 34.7815 13.742 40.6837 12.8071 41.6215L11.1223 43.3239H12.2523H13.3927L25.3508 32.4064ZM30.3436 35.8315L37.3603 28.4002V26.3819C37.3603 25.2708 37.3398 24.3635 37.309 24.3635C37.2781 24.3635 32.6243 28.5939 26.9534 33.7621C21.2928 38.9202 16.6185 43.1913 16.5568 43.2423C16.5055 43.2831 17.9848 43.3137 19.8957 43.3035L23.327 43.2729L30.3436 35.8315ZM34.9975 42.9569C35.9734 42.488 36.4665 42.0089 36.9186 41.1118L37.309 40.3269L37.3398 35.8926L37.3706 31.4482L36.9699 31.8559C36.7439 32.0802 34.5146 34.4451 32.0182 37.1057C29.5115 39.7662 27.1589 42.2637 26.7891 42.6409L26.111 43.334L30.2204 43.3035L34.3297 43.2729L34.9975 42.9569ZM6.62255 39.7255L8.1019 38.2576L6.36571 36.6877L4.6398 35.1179L4.60898 35.6786C4.58843 35.9844 4.58843 37.1566 4.60898 38.278C4.6398 39.9803 4.68089 40.3881 4.83499 40.755C4.93772 40.9895 5.05073 41.1832 5.09182 41.1832C5.12264 41.1832 5.82123 40.5206 6.62255 39.7255ZM11.6976 34.5471C11.6359 34.4961 5.061 29.3788 4.72198 29.124C4.61925 29.0526 4.58843 29.3686 4.58843 30.653V32.284L7.08485 34.5369L9.57099 36.7795L10.6702 35.6989C11.2764 35.1077 11.7387 34.5878 11.6976 34.5471ZM14.081 30.8671C13.6803 30.4594 11.4407 28.176 9.10869 25.7906C6.77665 23.4053 4.80417 21.3869 4.72198 21.3054C4.60898 21.1831 4.58843 21.5908 4.58843 23.7621V26.3615L8.93404 29.7458L13.2694 33.1301L14.0399 32.3656L14.8104 31.6011L14.081 30.8671ZM17.3582 29.073L18.365 28.074L14.2248 24.2004C11.9544 22.0801 8.85186 19.1749 7.34168 17.758L4.58843 15.179V16.6978V18.2065L10.4134 24.1393C13.6084 27.4012 16.2589 30.072 16.2897 30.072C16.3308 30.072 16.8034 29.6235 17.3582 29.073ZM20.5532 25.9028L21.2518 25.2096L13.8344 18.3084L6.42735 11.4175L6.06779 11.6825C5.87259 11.8354 5.57467 12.1412 5.41029 12.3655L5.1021 12.7834L5.48221 13.1708C5.76986 13.446 19.8238 26.5959 19.8443 26.6061C19.8443 26.6061 20.1628 26.2901 20.5532 25.9028ZM23.9742 22.2228C23.9023 22.1311 21.5189 19.5317 18.6732 16.4328L13.5057 10.8059H11.1839H8.85186L9.16006 11.1117C9.3347 11.2748 12.4475 14.18 16.0945 17.5745L22.7208 23.7417L23.4092 23.0689C23.9947 22.4981 24.0769 22.3655 23.9742 22.2228ZM28.1965 18.2269C28.176 18.1861 26.409 16.5042 24.2618 14.4858L20.358 10.8161L18.3752 10.8059H16.3822L16.6801 11.1524C16.8342 11.3461 18.9094 13.6193 21.2826 16.1983L25.5974 20.8875L26.9124 19.5929C27.6315 18.8793 28.2068 18.2677 28.1965 18.2269ZM32.5319 14.0169C35.5111 11.0607 35.3981 11.2442 34.4324 10.9588C33.9907 10.8262 33.0866 10.8059 28.6691 10.8262L23.4297 10.8568L26.5528 13.7926C28.2684 15.4032 29.7067 16.7182 29.7375 16.7182C29.7786 16.7182 31.032 15.5052 32.5319 14.0169Z" fill="#F6B100"/>
<path d="M115.662 31.0054C115.782 30.9814 115.962 30.9694 116.202 30.9694C117.09 30.9694 117.534 31.4854 117.534 32.5174C117.534 33.0934 117.402 33.5854 117.138 33.9934C116.898 34.3774 116.514 34.6174 115.986 34.7134C112.986 35.3134 110.85 35.7694 109.578 36.0814C109.53 36.2734 109.482 36.5614 109.434 36.9454C108.762 41.4094 107.418 44.7574 105.402 46.9894C103.386 49.2214 100.89 50.3374 97.9141 50.3374C95.8981 50.3374 94.3501 49.8214 93.2701 48.7894C92.1901 47.7574 91.6501 46.3894 91.6501 44.6854C91.6501 42.2854 92.8021 40.1254 95.1061 38.2054C97.4341 36.2614 100.854 34.6174 105.366 33.2734C105.486 32.6014 105.726 30.9694 106.086 28.3774C106.182 27.8014 106.338 26.7574 106.554 25.2454C105.426 27.7174 104.01 29.5774 102.306 30.8254C100.602 32.0494 98.6821 32.6614 96.5461 32.6614C94.5061 32.6614 92.9701 32.0374 91.9381 30.7894C90.9061 29.5414 90.3901 27.9094 90.3901 25.8934C90.3901 25.1734 90.4621 24.4894 90.6061 23.8414C90.7501 23.1934 90.9541 22.4254 91.2181 21.5374C91.5301 20.4814 91.7581 19.6174 91.9021 18.9454C92.0461 18.2734 92.1181 17.5294 92.1181 16.7134C92.1181 15.5614 91.6861 14.9854 90.8221 14.9854C90.2701 14.9854 89.6461 15.2014 88.9501 15.6334C88.2781 16.0414 87.5701 16.6174 86.8261 17.3614C86.4181 17.7694 86.0221 17.9734 85.6381 17.9734C85.2781 17.9734 84.9781 17.8294 84.7381 17.5414C84.5221 17.2534 84.4141 16.8934 84.4141 16.4614C84.4141 15.5734 84.7621 14.7334 85.4581 13.9414C86.3461 12.9574 87.4141 12.1774 88.6621 11.6014C89.9101 11.0014 91.2061 10.7014 92.5501 10.7014C94.0141 10.7014 95.1541 11.1454 95.9701 12.0334C96.8101 12.9214 97.2301 14.2294 97.2301 15.9574C97.2301 16.8934 97.1461 17.7694 96.9781 18.5854C96.8101 19.4014 96.5701 20.3374 96.2581 21.3934C95.9941 22.3774 95.8021 23.1334 95.6821 23.6614C95.5861 24.1894 95.5381 24.7174 95.5381 25.2454C95.5381 26.3494 95.7301 27.1294 96.1141 27.5854C96.4981 28.0174 97.2181 28.2334 98.2741 28.2334C99.4981 28.2334 100.794 27.6094 102.162 26.3614C103.53 25.0894 104.742 23.3374 105.798 21.1054C106.854 18.8734 107.562 16.3774 107.922 13.6174C108.066 12.5374 108.342 11.7814 108.75 11.3494C109.182 10.9174 109.806 10.7014 110.622 10.7014C112.302 10.7014 113.142 11.5414 113.142 13.2214C113.142 13.5094 113.13 13.7374 113.106 13.9054C112.794 16.1374 112.398 18.6214 111.918 21.3574C111.342 24.8134 110.766 28.3654 110.19 32.0134C111.726 31.7014 113.55 31.3654 115.662 31.0054ZM104.754 37.4134C101.802 38.3254 99.6061 39.3334 98.1661 40.4374C96.7501 41.5414 96.0421 42.8014 96.0421 44.2174C96.0421 44.8894 96.2581 45.4654 96.6901 45.9454C97.1221 46.4254 97.7101 46.6654 98.4541 46.6654C99.9901 46.6654 101.298 45.9454 102.378 44.5054C103.482 43.0654 104.262 40.8094 104.718 37.7374L104.754 37.4134ZM150.194 33.2014C150.506 33.2014 150.746 33.3454 150.914 33.6334C151.106 33.9214 151.202 34.3174 151.202 34.8214C151.202 35.7574 150.974 36.5014 150.518 37.0534C149.366 38.4454 148.202 39.5254 147.026 40.2934C145.85 41.0374 144.458 41.4094 142.85 41.4094C141.074 41.4094 139.622 40.8934 138.494 39.8614C137.366 38.8054 136.31 37.1734 135.326 34.9654C134.606 33.3814 134.006 32.2054 133.526 31.4374C133.07 30.6454 132.614 30.0934 132.158 29.7814C131.702 29.4454 131.126 29.2414 130.43 29.1694L130.034 31.8334C129.53 35.2654 128.546 37.7374 127.082 39.2494C125.642 40.7614 123.65 41.5174 121.106 41.5174C119.45 41.5174 117.974 41.1214 116.678 40.3294C115.406 39.5134 114.518 38.4814 114.014 37.2334C113.846 36.8014 113.762 36.3334 113.762 35.8294C113.762 35.1094 113.93 34.4854 114.266 33.9574C114.602 33.4294 115.034 33.1654 115.562 33.1654C115.874 33.1654 116.138 33.2494 116.354 33.4174C116.57 33.5614 116.774 33.8254 116.966 34.2094C117.71 35.6014 118.358 36.5734 118.91 37.1254C119.486 37.6774 120.194 37.9534 121.034 37.9534C121.994 37.9534 122.81 37.5214 123.482 36.6574C124.178 35.7694 124.67 34.4134 124.958 32.5894L125.462 29.1694H124.886C124.334 29.1694 123.902 29.0134 123.59 28.7014C123.278 28.3894 123.122 27.9574 123.122 27.4054C123.122 26.7814 123.278 26.2894 123.59 25.9294C123.926 25.5454 124.334 25.3534 124.814 25.3534H126.002C126.17 24.1774 126.29 23.3614 126.362 22.9054L127.478 14.8054C126.854 14.7334 126.266 14.6974 125.714 14.6974C123.674 14.6974 122.126 15.0574 121.07 15.7774C120.014 16.4734 119.486 17.4814 119.486 18.8014C119.486 19.4014 119.546 19.8934 119.666 20.2774C119.81 20.6374 119.99 21.0454 120.206 21.5014C120.302 21.6934 120.35 21.9094 120.35 22.1494C120.35 22.6774 120.098 23.1454 119.594 23.5534C119.114 23.9374 118.574 24.1294 117.974 24.1294C117.206 24.1294 116.642 23.7934 116.282 23.1214C115.562 21.8494 115.202 20.4814 115.202 19.0174C115.202 17.5054 115.61 16.1254 116.426 14.8774C117.266 13.6294 118.526 12.6334 120.206 11.8894C121.886 11.1214 123.962 10.7374 126.434 10.7374C127.514 10.7374 128.498 10.7974 129.386 10.9174C130.298 11.0374 131.294 11.2654 132.374 11.6014C133.55 11.9614 134.138 12.6334 134.138 13.6174C134.138 14.9374 133.574 15.5974 132.446 15.5974L131.042 25.2814C133.85 24.9934 136.13 23.7934 137.882 21.6814C139.658 19.5454 141.134 16.6534 142.31 13.0054C142.526 12.3334 142.886 11.8174 143.39 11.4574C143.918 11.0974 144.578 10.9174 145.37 10.9174C146.042 10.9174 146.558 11.0734 146.918 11.3854C147.302 11.6734 147.494 12.0934 147.494 12.6454C147.494 12.8134 147.446 13.0894 147.35 13.4734C146.15 17.4334 144.434 20.5774 142.202 22.9054C139.97 25.2334 137.534 26.7814 134.894 27.5494C135.806 27.7654 136.55 28.0894 137.126 28.5214C137.726 28.9534 138.23 29.4934 138.638 30.1414C139.046 30.7654 139.514 31.6414 140.042 32.7694C140.786 34.3534 141.482 35.4814 142.13 36.1534C142.778 36.8014 143.534 37.1254 144.398 37.1254C145.166 37.1254 145.898 36.8734 146.594 36.3694C147.29 35.8414 148.166 34.9534 149.222 33.7054C149.51 33.3694 149.834 33.2014 150.194 33.2014ZM187.316 18.1894C187.316 20.2294 186.596 21.9934 185.156 23.4814C183.716 24.9454 181.616 26.0014 178.856 26.6494C180.344 27.0574 181.472 27.7294 182.24 28.6654C183.008 29.5774 183.392 30.6334 183.392 31.8334C183.392 33.7294 182.792 35.3734 181.592 36.7654C180.416 38.1574 178.688 39.2374 176.408 40.0054C174.128 40.7494 171.38 41.1214 168.164 41.1214C166.964 41.1214 166.004 41.0854 165.284 41.0134C165.26 41.6854 164.972 42.1894 164.42 42.5254C163.868 42.8614 163.16 43.0294 162.296 43.0294C161.432 43.0294 160.832 42.8374 160.496 42.4534C160.184 42.0694 160.052 41.5054 160.1 40.7614C160.316 37.4014 160.736 33.8854 161.36 30.2134C161.984 26.5174 162.776 22.9534 163.736 19.5214C163.904 18.9214 164.24 18.5014 164.744 18.2614C165.248 18.0214 165.908 17.9014 166.724 17.9014C168.188 17.9014 168.92 18.3094 168.92 19.1254C168.92 19.4614 168.848 19.8454 168.704 20.2774C168.08 22.1494 167.456 24.6934 166.832 27.9094C166.208 31.1014 165.764 34.1494 165.5 37.0534C166.652 37.1494 167.588 37.1974 168.308 37.1974C171.668 37.1974 174.128 36.7174 175.688 35.7574C177.272 34.7734 178.064 33.5254 178.064 32.0134C178.064 30.9574 177.608 30.0694 176.696 29.3494C175.808 28.6294 174.308 28.2334 172.196 28.1614C171.716 28.1374 171.38 28.0174 171.188 27.8014C170.996 27.5854 170.9 27.2374 170.9 26.7574C170.9 26.0614 171.044 25.4974 171.332 25.0654C171.62 24.6334 172.148 24.4054 172.916 24.3814C174.62 24.3334 176.156 24.0814 177.524 23.6254C178.916 23.1694 180.008 22.5334 180.8 21.7174C181.592 20.8774 181.988 19.9054 181.988 18.8014C181.988 17.4094 181.304 16.3174 179.936 15.5254C178.568 14.7094 176.468 14.3014 173.636 14.3014C171.068 14.3014 168.584 14.6374 166.184 15.3094C163.784 15.9574 161.744 16.7854 160.064 17.7934C159.296 18.2494 158.648 18.4774 158.12 18.4774C157.688 18.4774 157.352 18.3334 157.112 18.0454C156.896 17.7334 156.788 17.3494 156.788 16.8934C156.788 16.2934 156.908 15.7774 157.148 15.3454C157.412 14.9134 158.024 14.4214 158.984 13.8694C161 12.7174 163.364 11.8174 166.076 11.1694C168.788 10.5214 171.56 10.1974 174.392 10.1974C178.736 10.1974 181.976 10.9294 184.112 12.3934C186.248 13.8574 187.316 15.7894 187.316 18.1894ZM202.364 33.2014C202.676 33.2014 202.916 33.3454 203.084 33.6334C203.276 33.9214 203.372 34.3174 203.372 34.8214C203.372 35.7814 203.144 36.5254 202.688 37.0534C201.8 38.1334 200.54 39.1294 198.908 40.0414C197.3 40.9534 195.572 41.4094 193.724 41.4094C191.204 41.4094 189.248 40.7254 187.856 39.3574C186.464 37.9894 185.768 36.1174 185.768 33.7414C185.768 32.0854 186.116 30.5494 186.812 29.1334C187.508 27.6934 188.468 26.5534 189.692 25.7134C190.94 24.8734 192.344 24.4534 193.904 24.4534C195.296 24.4534 196.412 24.8734 197.252 25.7134C198.092 26.5294 198.512 27.6454 198.512 29.0614C198.512 30.7174 197.912 32.1454 196.712 33.3454C195.536 34.5214 193.532 35.4574 190.7 36.1534C191.3 37.2574 192.44 37.8094 194.12 37.8094C195.2 37.8094 196.424 37.4374 197.792 36.6934C199.184 35.9254 200.384 34.9294 201.392 33.7054C201.68 33.3694 202.004 33.2014 202.364 33.2014ZM193.292 27.9814C192.404 27.9814 191.648 28.4974 191.024 29.5294C190.424 30.5614 190.124 31.8094 190.124 33.2734V33.3454C191.54 33.0094 192.656 32.5054 193.472 31.8334C194.288 31.1614 194.696 30.3814 194.696 29.4934C194.696 29.0374 194.564 28.6774 194.3 28.4134C194.06 28.1254 193.724 27.9814 193.292 27.9814ZM207.317 41.4094C204.965 41.4094 203.129 40.7494 201.809 39.4294C200.513 38.0854 199.865 36.3214 199.865 34.1374C199.865 32.1934 200.249 30.4894 201.017 29.0254C201.785 27.5614 202.781 26.4334 204.005 25.6414C205.229 24.8494 206.513 24.4534 207.857 24.4534C209.177 24.4534 210.197 24.8494 210.917 25.6414C211.661 26.4094 212.033 27.4054 212.033 28.6294C212.033 29.6374 211.805 30.4894 211.349 31.1854C210.917 31.8814 210.341 32.2294 209.621 32.2294C209.165 32.2294 208.793 32.1214 208.505 31.9054C208.241 31.6894 208.109 31.3894 208.109 31.0054C208.109 30.8374 208.133 30.6454 208.181 30.4294C208.229 30.2134 208.265 30.0574 208.289 29.9614C208.409 29.6014 208.469 29.2654 208.469 28.9534C208.469 28.6414 208.385 28.4014 208.217 28.2334C208.073 28.0654 207.857 27.9814 207.569 27.9814C207.017 27.9814 206.501 28.2334 206.021 28.7374C205.541 29.2174 205.157 29.8774 204.869 30.7174C204.581 31.5574 204.437 32.4814 204.437 33.4894C204.437 36.2734 205.649 37.6654 208.073 37.6654C209.057 37.6654 210.113 37.3414 211.241 36.6934C212.393 36.0214 213.521 35.0254 214.625 33.7054C214.913 33.3694 215.237 33.2014 215.597 33.2014C215.909 33.2014 216.149 33.3454 216.317 33.6334C216.509 33.9214 216.605 34.3174 216.605 34.8214C216.605 35.7334 216.377 36.4774 215.921 37.0534C214.793 38.4454 213.437 39.5254 211.853 40.2934C210.293 41.0374 208.781 41.4094 207.317 41.4094ZM232.703 33.2014C233.015 33.2014 233.255 33.3454 233.423 33.6334C233.615 33.9214 233.711 34.3174 233.711 34.8214C233.711 35.7814 233.483 36.5254 233.027 37.0534C231.923 38.3254 230.783 39.3694 229.607 40.1854C228.455 41.0014 227.135 41.4094 225.647 41.4094C224.399 41.4094 223.523 41.0254 223.019 40.2574C222.515 39.4894 222.263 38.3374 222.263 36.8014C222.263 36.1534 222.323 35.3734 222.443 34.4614C220.331 34.4614 218.867 34.4374 218.051 34.3894C218.003 35.0614 217.979 35.5294 217.979 35.7934V36.5494C217.955 38.0374 217.919 39.0814 217.871 39.6814C217.823 40.2814 217.679 40.7254 217.439 41.0134C217.199 41.2774 216.803 41.4094 216.251 41.4094C215.339 41.4094 214.691 40.9294 214.307 39.9694C213.947 39.0094 213.767 37.4734 213.767 35.3614C213.767 32.2414 214.211 29.2774 215.099 26.4694C215.315 25.7734 215.663 25.2694 216.143 24.9574C216.623 24.6214 217.319 24.4534 218.231 24.4534C218.711 24.4534 219.047 24.5134 219.239 24.6334C219.431 24.7534 219.527 24.9814 219.527 25.3174C219.527 25.7014 219.347 26.5654 218.987 27.9094C218.795 28.7014 218.615 29.6614 218.447 30.7894H223.055C223.295 29.6614 223.643 28.2214 224.099 26.4694C224.291 25.7494 224.579 25.2334 224.963 24.9214C225.371 24.6094 225.971 24.4534 226.763 24.4534C227.315 24.4534 227.699 24.5254 227.915 24.6694C228.131 24.7894 228.239 25.0294 228.239 25.3894C228.239 25.9894 227.939 27.6334 227.339 30.3214C226.667 33.3934 226.331 35.2894 226.331 36.0094C226.331 36.4654 226.427 36.8254 226.619 37.0894C226.811 37.3294 227.063 37.4494 227.375 37.4494C227.855 37.4494 228.419 37.1614 229.067 36.5854C229.739 35.9854 230.627 35.0254 231.731 33.7054C232.019 33.3694 232.343 33.2014 232.703 33.2014ZM235.209 41.4094C233.721 41.4094 232.533 40.8694 231.645 39.7894C230.757 38.7094 230.313 37.2934 230.313 35.5414C230.313 33.6214 230.757 31.8094 231.645 30.1054C232.533 28.3774 233.709 26.9974 235.173 25.9654C236.661 24.9094 238.233 24.3814 239.889 24.3814C240.417 24.3814 240.765 24.4894 240.933 24.7054C241.125 24.8974 241.281 25.2574 241.401 25.7854C241.905 25.6894 242.433 25.6414 242.985 25.6414C244.161 25.6414 244.749 26.0614 244.749 26.9014C244.749 27.4054 244.569 28.6054 244.209 30.5014C243.657 33.2614 243.381 35.1814 243.381 36.2614C243.381 36.6214 243.465 36.9094 243.633 37.1254C243.825 37.3414 244.065 37.4494 244.353 37.4494C244.809 37.4494 245.361 37.1614 246.009 36.5854C246.657 35.9854 247.533 35.0254 248.637 33.7054C248.925 33.3694 249.249 33.2014 249.609 33.2014C249.921 33.2014 250.161 33.3454 250.329 33.6334C250.521 33.9214 250.617 34.3174 250.617 34.8214C250.617 35.7814 250.389 36.5254 249.933 37.0534C248.949 38.2774 247.905 39.3094 246.801 40.1494C245.697 40.9894 244.629 41.4094 243.597 41.4094C242.805 41.4094 242.073 41.1454 241.401 40.6174C240.753 40.0654 240.261 39.3214 239.925 38.3854C238.677 40.4014 237.105 41.4094 235.209 41.4094ZM236.505 37.7734C237.033 37.7734 237.537 37.4614 238.017 36.8374C238.497 36.2134 238.845 35.3854 239.061 34.3534L240.393 27.7294C239.385 27.7534 238.449 28.1374 237.585 28.8814C236.745 29.6014 236.073 30.5614 235.569 31.7614C235.065 32.9614 234.813 34.2334 234.813 35.5774C234.813 36.3214 234.957 36.8734 235.245 37.2334C235.557 37.5934 235.977 37.7734 236.505 37.7734Z" fill="#F6B100"/>
</svg>
